<svg width="14" height="14" viewBox="0 0 14 14" fill="none" xmlns="http://www.w3.org/2000/svg">
<path fill-rule="evenodd" clip-rule="evenodd" d="M7 14C3.13409 14 0 10.8659 0 7C0 3.13409 3.13409 0 7 0C10.8659 0 14 3.13409 14 7C14 10.8659 10.8659 14 7 14ZM7 12.6172C8.48977 12.6172 9.91852 12.0254 10.9719 10.9719C12.0254 9.91852 12.6172 8.48977 12.6172 7C12.6172 5.51023 12.0254 4.08148 10.9719 3.02805C9.91852 1.97463 8.48977 1.38282 7 1.38282C5.51023 1.38282 4.08148 1.97463 3.02805 3.02805C1.97463 4.08148 1.38282 5.51023 1.38282 7C1.38282 8.48977 1.97463 9.91852 3.02805 10.9719C4.08148 12.0254 5.51023 12.6172 7 12.6172V12.6172ZM6.594 3.00364C6.7067 2.91345 6.84674 2.8643 6.99109 2.86427C7.06682 2.86364 7.14191 2.87445 7.21191 2.898C7.28191 2.92091 7.34555 2.95527 7.39964 2.99855C7.45309 3.04182 7.49509 3.09336 7.52436 3.15C7.553 3.20727 7.567 3.26773 7.56636 3.32945V3.72973C8.67618 3.91873 9.54545 4.64864 9.54545 5.56564C9.5464 5.62744 9.53243 5.68856 9.50473 5.74382C9.47518 5.80238 9.43354 5.85401 9.38255 5.89527C9.32762 5.93984 9.26511 5.97411 9.198 5.99645C9.05623 6.04446 8.90259 6.04446 8.76082 5.99645C8.69367 5.97392 8.63115 5.93943 8.57627 5.89464C8.52538 5.85353 8.48374 5.80213 8.45409 5.74382C8.42641 5.68855 8.41244 5.62744 8.41336 5.56564C8.41336 5.06164 7.84573 4.62064 7.04391 4.60345C7.01593 4.60515 6.98788 4.60515 6.95991 4.60345C6.15618 4.61873 5.70118 5.061 5.70118 5.56564C5.70118 6.07918 6.17336 6.53927 7 6.53927C7 6.53927 7.29655 6.50618 7.40345 6.58382C8.57436 6.73655 9.54545 7.47345 9.54545 8.42609C9.54545 9.34245 8.67618 10.0711 7.56636 10.2607V10.6699C7.56729 10.7317 7.55332 10.7928 7.52564 10.8481C7.49604 10.9066 7.4544 10.9582 7.40345 10.9995C7.34855 11.0441 7.28603 11.0784 7.21891 11.1007C7.07714 11.1488 6.92349 11.1488 6.78173 11.1007C6.71456 11.0782 6.65204 11.0437 6.59718 10.9989C6.54607 10.9579 6.50422 10.9065 6.47436 10.8481C6.44668 10.7928 6.43271 10.7317 6.43364 10.6699V10.2607C5.32382 10.0711 4.45455 9.34309 4.45455 8.42609C4.4536 8.36429 4.46757 8.30316 4.49527 8.24791C4.52483 8.18935 4.56648 8.13773 4.61745 8.09645C4.67239 8.05191 4.73491 8.01764 4.802 7.99527C4.94378 7.94731 5.0974 7.94731 5.23918 7.99527C5.30632 8.01783 5.36884 8.05232 5.42373 8.09709C5.47463 8.13819 5.51627 8.18958 5.54591 8.24791C5.57361 8.30316 5.58759 8.36429 5.58664 8.42609C5.58664 8.93964 6.07409 9.37555 6.90073 9.37555C7.72736 9.37555 8.29945 8.93964 8.29945 8.42609C8.29945 7.91191 7.82664 7.45627 7 7.45627C6.96674 7.45566 6.93357 7.45268 6.90073 7.44736C5.57709 7.40791 4.45455 6.608 4.45455 5.56564C4.45455 4.662 5.34227 4.01927 6.43364 3.82582V3.32882C6.43415 3.26595 6.44883 3.204 6.4766 3.14759C6.50436 3.09118 6.54449 3.04176 6.594 3.003V3.00364Z" fill="#0F3659"/>
</svg>
