<svg width="51" height="50" viewBox="0 0 51 50" fill="none" xmlns="http://www.w3.org/2000/svg">
<circle cx="25.5" cy="25" r="25" fill="#5D5FEF"/>
<g clip-path="url(#clip0_1108_5516)">
<path d="M35.5355 20.1564C35.5355 22.0528 33.9982 23.5902 32.1017 23.5902C30.2053 23.5902 28.668 22.0528 28.668 20.1564C28.668 18.26 30.2053 16.7227 32.1017 16.7227C33.9982 16.7227 35.5355 18.26 35.5355 20.1564Z" fill="white"/>
<path d="M32.6747 25.3076H32.1024C31.232 25.3065 30.3707 25.4865 29.5738 25.8362C28.7767 26.186 28.0611 26.6979 27.4727 27.3393C28.6231 28.9076 29.2426 30.8023 29.241 32.7474V33.3197H38.97V31.6028C38.9706 30.4976 38.6801 29.4118 38.1277 28.4545C37.5752 27.4972 36.7804 26.7024 35.8231 26.15C34.8659 25.5976 33.7801 25.3071 32.6749 25.3077L32.6747 25.3076Z" fill="white"/>
<path d="M24.0903 19.0119C24.0903 21.5405 22.0405 23.5903 19.5119 23.5903C16.9834 23.5903 14.9336 21.5405 14.9336 19.0119C14.9336 16.4834 16.9834 14.4336 19.5119 14.4336C22.0405 14.4336 24.0903 16.4834 24.0903 19.0119Z" fill="white"/>
<path d="M20.0844 25.3067H18.9398C17.6338 25.3067 16.351 25.6505 15.2199 26.3034C14.0889 26.9564 13.1497 27.8956 12.4967 29.0266C11.8437 30.1577 11.5 31.4405 11.5 32.7465V35.0357H27.5242V32.7465C27.5235 30.7735 26.7395 28.8815 25.3444 27.4865C23.9493 26.0913 22.0574 25.3074 20.0844 25.3067Z" fill="white"/>
</g>
<defs>
<clipPath id="clip0_1108_5516">
<rect width="27.47" height="27.47" fill="white" transform="translate(11.5 11)"/>
</clipPath>
</defs>
</svg>
