<svg width="14" height="14" viewBox="0 0 14 14" fill="none" xmlns="http://www.w3.org/2000/svg">
<path d="M11.7895 2.94732V1.47363C12.3757 1.47363 12.938 1.70653 13.3526 2.12108C13.7671 2.53563 14 3.09789 14 3.68416V11.7894C14 12.3757 13.7671 12.9379 13.3526 13.3525C12.938 13.7671 12.3757 13.9999 11.7895 13.9999H2.21053C1.62426 13.9999 1.062 13.7671 0.647448 13.3525C0.232894 12.9379 0 12.3757 0 11.7894L0 3.68416C0 3.09789 0.232894 2.53563 0.647448 2.12108C1.062 1.70653 1.62426 1.47363 2.21053 1.47363V2.94732C2.0151 2.94732 1.82768 3.02495 1.6895 3.16313C1.55132 3.30132 1.47368 3.48874 1.47368 3.68416V11.7894C1.47368 11.9848 1.55132 12.1723 1.6895 12.3104C1.82768 12.4486 2.0151 12.5263 2.21053 12.5263H11.7895C11.9849 12.5263 12.1723 12.4486 12.3105 12.3104C12.4487 12.1723 12.5263 11.9848 12.5263 11.7894V3.68416C12.5263 3.48874 12.4487 3.30132 12.3105 3.16313C12.1723 3.02495 11.9849 2.94732 11.7895 2.94732Z" fill="#737791"/>
<path d="M3.68215 0C3.87758 0 4.065 0.0776314 4.20318 0.215816C4.34137 0.354001 4.419 0.541419 4.419 0.736842V2.94884C4.419 3.14426 4.34137 3.33168 4.20318 3.46987C4.065 3.60805 3.87758 3.68568 3.68215 3.68568C3.48673 3.68568 3.29931 3.60805 3.16113 3.46987C3.02294 3.33168 2.94531 3.14426 2.94531 2.94884V0.736842C2.94531 0.541419 3.02294 0.354001 3.16113 0.215816C3.29931 0.0776314 3.48673 0 3.68215 0V0Z" fill="#737791"/>
<path d="M10.3178 0C10.1224 0 9.935 0.0776314 9.79682 0.215816C9.65863 0.354001 9.581 0.541419 9.581 0.736842V2.94884C9.581 3.14426 9.65863 3.33168 9.79682 3.46987C9.935 3.60805 10.1224 3.68568 10.3178 3.68568C10.5133 3.68568 10.7007 3.60805 10.8389 3.46987C10.9771 3.33168 11.0547 3.14426 11.0547 2.94884V0.736842C11.0547 0.541419 10.9771 0.354001 10.8389 0.215816C10.7007 0.0776314 10.5133 0 10.3178 0V0Z" fill="#737791"/>
<path d="M2.94531 2.94727H8.84005C8.84005 2.55642 8.68479 2.18158 8.40842 1.90521C8.13205 1.62884 7.75721 1.47358 7.36637 1.47358H2.94531V2.94727Z" fill="#737791"/>
<path d="M5.15584 6.26347C5.15584 5.65305 4.661 5.1582 4.05058 5.1582C3.44016 5.1582 2.94531 5.65305 2.94531 6.26347C2.94531 6.87389 3.44016 7.36873 4.05058 7.36873C4.661 7.36873 5.15584 6.87389 5.15584 6.26347Z" fill="#737791"/>
<path d="M5.15584 9.21073C5.15584 8.60031 4.661 8.10547 4.05058 8.10547C3.44016 8.10547 2.94531 8.60031 2.94531 9.21073C2.94531 9.82115 3.44016 10.316 4.05058 10.316C4.661 10.316 5.15584 9.82115 5.15584 9.21073Z" fill="#737791"/>
<path d="M8.10896 6.26347C8.10896 5.65305 7.61412 5.1582 7.0037 5.1582C6.39328 5.1582 5.89844 5.65305 5.89844 6.26347C5.89844 6.87389 6.39328 7.36873 7.0037 7.36873C7.61412 7.36873 8.10896 6.87389 8.10896 6.26347Z" fill="#737791"/>
<path d="M8.10896 9.21073C8.10896 8.60031 7.61412 8.10547 7.0037 8.10547C6.39328 8.10547 5.89844 8.60031 5.89844 9.21073C5.89844 9.82115 6.39328 10.316 7.0037 10.316C7.61412 10.316 8.10896 9.82115 8.10896 9.21073Z" fill="#737791"/>
<path d="M11.0543 6.26347C11.0543 5.65305 10.5594 5.1582 9.94901 5.1582C9.33859 5.1582 8.84375 5.65305 8.84375 6.26347C8.84375 6.87389 9.33859 7.36873 9.94901 7.36873C10.5594 7.36873 11.0543 6.87389 11.0543 6.26347Z" fill="#737791"/>
<path d="M11.0543 9.21073C11.0543 8.60031 10.5594 8.10547 9.94901 8.10547C9.33859 8.10547 8.84375 8.60031 8.84375 9.21073C8.84375 9.82115 9.33859 10.316 9.94901 10.316C10.5594 10.316 11.0543 9.82115 11.0543 9.21073Z" fill="#737791"/>
<path d="M11.8571 1.47266V2.94634H11.0547V1.47266H11.8571Z" fill="#737791"/>
</svg>
