<svg xmlns="http://www.w3.org/2000/svg" width="16" height="15" viewBox="0 0 16 15" fill="none">
<path d="M15.5112 5.92803C14.9096 4.94288 14.1507 4.06289 13.2647 3.323L15.1307 1.45702C15.2521 1.33133 15.3193 1.16299 15.3177 0.98826C15.3162 0.813527 15.2461 0.646381 15.1226 0.522821C14.999 0.399261 14.8319 0.329175 14.6571 0.327656C14.4824 0.326138 14.3141 0.393309 14.1884 0.514703L12.1591 2.54662C10.9012 1.79944 9.46307 1.41001 8 1.42037C3.8742 1.42037 1.52307 4.24465 0.488783 5.92803C0.169253 6.44484 0 7.04045 0 7.64806C0 8.25567 0.169253 8.85128 0.488783 9.36809C1.0904 10.3532 1.84927 11.2332 2.73528 11.9731L0.869308 13.8391C0.805659 13.9006 0.754889 13.9741 0.719963 14.0554C0.685036 14.1367 0.666652 14.2242 0.665884 14.3127C0.665115 14.4011 0.681976 14.4889 0.715484 14.5708C0.748993 14.6527 0.798476 14.7271 0.861048 14.7897C0.92362 14.8523 0.998027 14.9017 1.07993 14.9352C1.16183 14.9688 1.24958 14.9856 1.33807 14.9848C1.42656 14.9841 1.514 14.9657 1.59531 14.9308C1.67662 14.8958 1.75015 14.8451 1.81163 14.7814L3.84554 12.7475C5.10192 13.4946 6.53832 13.8847 8 13.8758C12.1258 13.8758 14.4769 11.0515 15.5112 9.36809C15.8307 8.85128 16 8.25567 16 7.64806C16 7.04045 15.8307 6.44484 15.5112 5.92803V5.92803ZM1.62436 8.67035C1.43452 8.36316 1.33397 8.00918 1.33397 7.64806C1.33397 7.28695 1.43452 6.93296 1.62436 6.62577C2.51337 5.18231 4.52262 2.75321 8 2.75321C9.10644 2.74701 10.1973 3.01367 11.1762 3.52959L9.83465 4.87109C9.19485 4.44631 8.42778 4.25598 7.66361 4.33239C6.89945 4.40879 6.18525 4.74723 5.64221 5.29027C5.09917 5.83331 4.76073 6.54751 4.68433 7.31167C4.60792 8.07584 4.79825 8.84291 5.22303 9.48271L3.6836 11.0221C2.8673 10.3622 2.17072 9.56665 1.62436 8.67035V8.67035ZM9.99926 7.64806C9.99926 8.1783 9.78862 8.68682 9.41369 9.06175C9.03876 9.43668 8.53024 9.64732 8 9.64732C7.70312 9.64617 7.41035 9.57782 7.14365 9.44739L9.79933 6.79171C9.92976 7.05841 9.99811 7.35118 9.99926 7.64806V7.64806ZM6.00074 7.64806C6.00074 7.11782 6.21138 6.6093 6.58631 6.23437C6.96124 5.85944 7.46976 5.6488 8 5.6488C8.29688 5.64995 8.58965 5.7183 8.85635 5.84873L6.20067 8.50441C6.07024 8.23771 6.00189 7.94494 6.00074 7.64806ZM14.3756 8.67035C13.4866 10.1138 11.4774 12.5429 8 12.5429C6.89356 12.5491 5.80266 12.2825 4.82384 11.7665L6.16535 10.425C6.80515 10.8498 7.57222 11.0401 8.33639 10.9637C9.10055 10.8873 9.81475 10.5489 10.3578 10.0059C10.9008 9.46281 11.2393 8.74861 11.3157 7.98445C11.3921 7.22028 11.2017 6.45321 10.777 5.81341L12.3164 4.27398C13.1327 4.93392 13.8293 5.72947 14.3756 6.62577C14.5655 6.93296 14.666 7.28695 14.666 7.64806C14.666 8.00918 14.5655 8.36316 14.3756 8.67035V8.67035Z" fill="#4B5563"/>
</svg>