<svg width="17" height="17" viewBox="0 0 17 17" fill="none" xmlns="http://www.w3.org/2000/svg">
<path d="M13.9983 12.8848L11.4058 10.2923C11.9415 9.48503 12.255 8.51842 12.255 7.4793C12.255 4.66371 9.96432 2.37305 7.14873 2.37305C4.33314 2.37305 2.04248 4.66371 2.04248 7.4793C2.04248 10.2949 4.33314 12.5855 7.14873 12.5855C8.18785 12.5855 9.15447 12.272 9.96176 11.7364L12.5542 14.3288C12.9525 14.7276 13.6 14.7276 13.9983 14.3288C14.3971 13.93 14.3971 13.2836 13.9983 12.8848V12.8848ZM3.57436 7.4793C3.57436 5.50828 5.17772 3.90492 7.14873 3.90492C9.11974 3.90492 10.7231 5.50828 10.7231 7.4793C10.7231 9.45031 9.11974 11.0537 7.14873 11.0537C5.17772 11.0537 3.57436 9.45031 3.57436 7.4793V7.4793Z" fill="#5D5FEF"/>
</svg>
