<svg width="17" height="17" viewBox="0 0 17 17" fill="none" xmlns="http://www.w3.org/2000/svg">
<path d="M13.1493 3.94732V2.47363C13.7356 2.47363 14.2979 2.70653 14.7124 3.12108C15.127 3.53563 15.3599 4.09789 15.3599 4.68416V12.7894C15.3599 13.3757 15.127 13.9379 14.7124 14.3525C14.2979 14.7671 13.7356 14.9999 13.1493 14.9999H3.57039C2.98412 14.9999 2.42187 14.7671 2.00731 14.3525C1.59276 13.9379 1.35986 13.3757 1.35986 12.7894L1.35986 4.68416C1.35986 4.09789 1.59276 3.53563 2.00731 3.12108C2.42187 2.70653 2.98412 2.47363 3.57039 2.47363V3.94732C3.37497 3.94732 3.18755 4.02495 3.04936 4.16313C2.91118 4.30132 2.83355 4.48874 2.83355 4.68416V12.7894C2.83355 12.9848 2.91118 13.1723 3.04936 13.3104C3.18755 13.4486 3.37497 13.5263 3.57039 13.5263H13.1493C13.3448 13.5263 13.5322 13.4486 13.6704 13.3104C13.8085 13.1723 13.8862 12.9848 13.8862 12.7894V4.68416C13.8862 4.48874 13.8085 4.30132 13.6704 4.16313C13.5322 4.02495 13.3448 3.94732 13.1493 3.94732Z" fill="#5D5FEF"/>
<path d="M5.04348 1C5.23891 1 5.42632 1.07763 5.56451 1.21582C5.70269 1.354 5.78032 1.54142 5.78032 1.73684V3.94884C5.78032 4.14426 5.70269 4.33168 5.56451 4.46987C5.42632 4.60805 5.23891 4.68568 5.04348 4.68568C4.84806 4.68568 4.66064 4.60805 4.52246 4.46987C4.38427 4.33168 4.30664 4.14426 4.30664 3.94884V1.73684C4.30664 1.54142 4.38427 1.354 4.52246 1.21582C4.66064 1.07763 4.84806 1 5.04348 1V1Z" fill="#5D5FEF"/>
<path d="M11.6762 1C11.4808 1 11.2934 1.07763 11.1552 1.21582C11.017 1.354 10.9394 1.54142 10.9394 1.73684V3.94884C10.9394 4.14426 11.017 4.33168 11.1552 4.46987C11.2934 4.60805 11.4808 4.68568 11.6762 4.68568C11.8717 4.68568 12.0591 4.60805 12.1973 4.46987C12.3355 4.33168 12.4131 4.14426 12.4131 3.94884V1.73684C12.4131 1.54142 12.3355 1.354 12.1973 1.21582C12.0591 1.07763 11.8717 1 11.6762 1V1Z" fill="#5D5FEF"/>
<path d="M4.30664 3.94727H10.2014C10.2014 3.55642 10.0461 3.18158 9.76975 2.90521C9.49338 2.62884 9.11854 2.47358 8.72769 2.47358H4.30664V3.94727Z" fill="#5D5FEF"/>
<path d="M6.51717 7.26347C6.51717 6.65305 6.02232 6.1582 5.4119 6.1582C4.80148 6.1582 4.30664 6.65305 4.30664 7.26347C4.30664 7.87389 4.80148 8.36873 5.4119 8.36873C6.02232 8.36873 6.51717 7.87389 6.51717 7.26347Z" fill="#5D5FEF"/>
<path d="M6.51717 10.2107C6.51717 9.60031 6.02232 9.10547 5.4119 9.10547C4.80148 9.10547 4.30664 9.60031 4.30664 10.2107C4.30664 10.8212 4.80148 11.316 5.4119 11.316C6.02232 11.316 6.51717 10.8212 6.51717 10.2107Z" fill="#5D5FEF"/>
<path d="M9.4659 7.26347C9.4659 6.65305 8.97105 6.1582 8.36063 6.1582C7.75021 6.1582 7.25537 6.65305 7.25537 7.26347C7.25537 7.87389 7.75021 8.36873 8.36063 8.36873C8.97105 8.36873 9.4659 7.87389 9.4659 7.26347Z" fill="#5D5FEF"/>
<path d="M9.4659 10.2107C9.4659 9.60031 8.97105 9.10547 8.36063 9.10547C7.75021 9.10547 7.25537 9.60031 7.25537 10.2107C7.25537 10.8212 7.75021 11.316 8.36063 11.316C8.97105 11.316 9.4659 10.8212 9.4659 10.2107Z" fill="#5D5FEF"/>
<path d="M12.4127 7.26347C12.4127 6.65305 11.9178 6.1582 11.3074 6.1582C10.697 6.1582 10.2021 6.65305 10.2021 7.26347C10.2021 7.87389 10.697 8.36873 11.3074 8.36873C11.9178 8.36873 12.4127 7.87389 12.4127 7.26347Z" fill="#5D5FEF"/>
<path d="M12.4127 10.2107C12.4127 9.60031 11.9178 9.10547 11.3074 9.10547C10.697 9.10547 10.2021 9.60031 10.2021 10.2107C10.2021 10.8212 10.697 11.316 11.3074 11.316C11.9178 11.316 12.4127 10.8212 12.4127 10.2107Z" fill="#5D5FEF"/>
<path d="M13.2155 2.47363V3.94732H12.4131V2.47363H13.2155Z" fill="#5D5FEF"/>
</svg>
