<svg width="107" height="89" viewBox="0 0 107 89" fill="none" xmlns="http://www.w3.org/2000/svg">
<path d="M4.71319 56.8328V65.4396C4.71319 66.3004 4.92494 66.9629 5.34845 67.4272C5.77196 67.892 6.39356 68.1242 7.21326 68.1242C8.03296 68.1242 8.66139 67.892 9.09856 67.4272C9.53573 66.9629 9.75432 66.3004 9.75432 65.4396V56.8328H13.2585V65.4191C13.2585 66.7031 12.9853 67.7893 12.4388 68.6773C11.8924 69.5653 11.1546 70.235 10.2256 70.6855C9.31032 71.1364 8.2857 71.3619 7.15178 71.3619C6.01787 71.3619 5.00008 71.1431 4.09841 70.706C3.21041 70.2551 2.50684 69.5859 1.9877 68.6978C1.46856 67.796 1.20898 66.7031 1.20898 65.4191V56.8328H4.71319ZM32.0107 56.8328V71.2186H28.5065V62.5912L25.2892 71.2186H22.4612L19.2234 62.5707V71.2186H15.7192V56.8328H19.8587L23.8957 66.7919L27.8917 56.8328H32.0107ZM43.4858 68.6773H38.1168L37.2561 71.2186H33.588L38.793 56.8328H42.8505L48.0558 71.2186H44.3465L43.4858 68.6773ZM42.5841 65.9722L40.8013 60.7058L39.0389 65.9722H42.5841ZM53.1441 56.8328V71.2186H49.6398V56.8328H53.1441ZM59.8416 64.0051C59.8416 62.5845 60.1492 61.3206 60.764 60.2138C61.3788 59.0936 62.2324 58.2262 63.3253 57.6114C64.4321 56.9833 65.6822 56.6689 67.0756 56.6689C68.7833 56.6689 70.245 57.1199 71.4607 58.0213C72.6768 58.9231 73.4894 60.1527 73.8992 61.7099H70.0467C69.7601 61.109 69.3503 60.6514 68.8172 60.337C68.2979 60.0227 67.7037 59.8656 67.0345 59.8656C65.9554 59.8656 65.0808 60.2415 64.4115 60.9929C63.7418 61.7443 63.4075 62.7484 63.4075 64.0051C63.4075 65.2619 63.7418 66.266 64.4115 67.0174C65.0808 67.7688 65.9554 68.1447 67.0345 68.1447C67.7037 68.1447 68.2979 67.9875 68.8172 67.6732C69.3503 67.3589 69.7601 66.9013 70.0467 66.3004H73.8992C73.4894 67.8576 72.6768 69.0872 71.4607 69.989C70.245 70.877 68.7833 71.3208 67.0756 71.3208C65.6822 71.3208 64.4321 71.0136 63.3253 70.3989C62.2324 69.7702 61.3788 68.9028 60.764 67.796C60.1492 66.6897 59.8416 65.4258 59.8416 64.0051ZM83.3816 71.2186L80.3899 65.7878H79.5497V71.2186H76.0454V56.8328H81.9266C83.0606 56.8328 84.0236 57.031 84.8161 57.427C85.6219 57.823 86.2233 58.3695 86.6193 59.0664C87.0158 59.7495 87.2135 60.5147 87.2135 61.3617C87.2135 62.318 86.9403 63.1716 86.3938 63.923C85.8612 64.6744 85.0688 65.2075 84.0169 65.5218L87.3368 71.2186H83.3816ZM79.5497 63.3082H81.7217C82.3637 63.3082 82.8418 63.151 83.1561 62.8372C83.4843 62.5229 83.6481 62.0787 83.6481 61.505C83.6481 60.9585 83.4843 60.5281 83.1561 60.2138C82.8418 59.9 82.3637 59.7428 81.7217 59.7428H79.5497V63.3082ZM105.705 56.8328V71.2186H102.201V62.5912L98.9835 71.2186H96.1557L92.9175 62.5707V71.2186H89.4132V56.8328H93.5528L97.5901 66.7919L101.586 56.8328H105.705Z" fill="#151D48"/>
<path d="M13.7859 85.6742C13.1936 85.6742 12.6637 85.5533 12.1965 85.3111C11.7376 85.069 11.3747 84.6935 11.1077 84.1848C10.849 83.676 10.7197 83.025 10.7197 82.2325C10.7197 81.4066 10.8574 80.735 11.1327 80.2176C11.4081 79.7003 11.7794 79.3206 12.2466 79.0784C12.7222 78.8367 13.2603 78.7158 13.861 78.7158C14.2031 78.7158 14.5327 78.7531 14.8497 78.8281C15.1668 78.895 15.4254 78.9785 15.6257 79.0784L15.2878 79.9922C15.0875 79.9172 14.8539 79.846 14.5869 79.7796C14.3199 79.7127 14.0696 79.6793 13.836 79.6793C13.3855 79.6793 13.0142 79.7753 12.7222 79.9673C12.4301 80.1589 12.2132 80.4426 12.0714 80.8181C11.9295 81.1935 11.8586 81.6607 11.8586 82.2201C11.8586 82.7536 11.9295 83.2084 12.0714 83.5838C12.2132 83.9593 12.4259 84.243 12.7096 84.4351C12.9933 84.6271 13.3479 84.7231 13.7734 84.7231C14.1405 84.7231 14.4618 84.6854 14.7371 84.6104C15.0208 84.5354 15.2794 84.4432 15.513 84.3348V85.3111C15.2878 85.4282 15.0375 85.5156 14.7621 85.5739C14.4952 85.6407 14.1698 85.6742 13.7859 85.6742ZM18.1471 82.9333C18.1471 83.0082 18.1429 83.1167 18.1346 83.2586C18.1346 83.3923 18.1304 83.538 18.1221 83.6966C18.1137 83.847 18.1054 83.9927 18.097 84.1346C18.0887 84.2684 18.0803 84.3768 18.072 84.4599L21.6639 78.841H23.0155V85.549H21.9893V81.5943C21.9893 81.4606 21.9893 81.2853 21.9893 81.0684C21.9976 80.8515 22.0059 80.639 22.0143 80.4302C22.0226 80.2133 22.031 80.0505 22.0393 79.942L18.4725 85.549H17.1083V78.841H18.1471V82.9333ZM27.8411 85.6742C27.2487 85.6742 26.7189 85.5533 26.2516 85.3111C25.7928 85.069 25.4298 84.6935 25.1628 84.1848C24.9042 83.676 24.7748 83.025 24.7748 82.2325C24.7748 81.4066 24.9125 80.735 25.1878 80.2176C25.4632 79.7003 25.8345 79.3206 26.3017 79.0784C26.7773 78.8367 27.3154 78.7158 27.9161 78.7158C28.2583 78.7158 28.5878 78.7531 28.9048 78.8281C29.2219 78.895 29.4805 78.9785 29.6808 79.0784L29.3429 79.9922C29.1426 79.9172 28.909 79.846 28.642 79.7796C28.375 79.7127 28.1247 79.6793 27.8911 79.6793C27.4406 79.6793 27.0693 79.7753 26.7773 79.9673C26.4853 80.1589 26.2683 80.4426 26.1265 80.8181C25.9847 81.1935 25.9137 81.6607 25.9137 82.2201C25.9137 82.7536 25.9847 83.2084 26.1265 83.5838C26.2683 83.9593 26.4811 84.243 26.7647 84.4351C27.0484 84.6271 27.403 84.7231 27.8285 84.7231C28.1957 84.7231 28.5169 84.6854 28.7922 84.6104C29.0759 84.5354 29.3346 84.4432 29.5681 84.3348V85.3111C29.3429 85.4282 29.0926 85.5156 28.8172 85.5739C28.5503 85.6407 28.2249 85.6742 27.8411 85.6742ZM35.7941 79.7667H33.6039V85.549H32.5151V79.7667H30.35V78.841H35.7941V79.7667ZM39.5839 78.7158C40.1596 78.7158 40.6519 78.841 41.0607 79.0913C41.4779 79.3416 41.7949 79.696 42.0119 80.1551C42.2371 80.6055 42.3498 81.1353 42.3498 81.7443V82.4078H37.7567C37.7734 83.1668 37.9653 83.7467 38.3324 84.147C38.7079 84.5392 39.2293 84.7355 39.8968 84.7355C40.3223 84.7355 40.6978 84.6978 41.0232 84.6228C41.3569 84.5392 41.699 84.4227 42.0494 84.2722V85.2361C41.7073 85.3861 41.3694 85.4946 41.0357 85.5614C40.7019 85.6364 40.3056 85.6742 39.8467 85.6742C39.2126 85.6742 38.6494 85.5447 38.1572 85.2863C37.6732 85.0274 37.2936 84.6438 37.0183 84.1346C36.7513 83.6173 36.6178 82.9877 36.6178 82.2449C36.6178 81.5107 36.7388 80.8807 36.9808 80.3552C37.2311 79.8293 37.5773 79.4247 38.0195 79.141C38.4701 78.8577 38.9915 78.7158 39.5839 78.7158ZM39.5714 79.6167C39.0458 79.6167 38.6286 79.7877 38.3199 80.1298C38.0195 80.4637 37.8401 80.9308 37.7817 81.5317H41.1984C41.1984 81.1477 41.1399 80.8138 41.0232 80.5305C40.9064 80.2468 40.7269 80.0256 40.485 79.867C40.2514 79.7003 39.9468 79.6167 39.5714 79.6167ZM51.2536 78.841V85.549H50.2648V81.2685C50.2648 81.0937 50.2691 80.9098 50.2777 80.7183C50.2944 80.5262 50.3111 80.3385 50.3274 80.1551H50.2901L48.1 85.549H47.1738L45.0462 80.1551H45.0087C45.0253 80.3385 45.0337 80.5262 45.0337 80.7183C45.042 80.9098 45.0462 81.1061 45.0462 81.3063V85.549H44.0575V78.841H45.5218L47.6369 84.2349L49.7895 78.841H51.2536ZM55.9358 78.7282C56.7531 78.7282 57.3583 78.9074 57.7505 79.2661C58.1422 79.6248 58.3385 80.1966 58.3385 80.981V85.549H57.5374L57.3249 84.598H57.2747C57.0827 84.8397 56.8826 85.0441 56.6738 85.2108C56.4737 85.3694 56.2401 85.4864 55.9731 85.5614C55.7146 85.6364 55.3974 85.6742 55.022 85.6742C54.6217 85.6742 54.2587 85.603 53.9334 85.4611C53.6162 85.3193 53.3659 85.1024 53.1825 84.8105C52.9986 84.5101 52.9068 84.1346 52.9068 83.6842C52.9068 83.0168 53.1696 82.5033 53.6955 82.1446C54.2209 81.7777 55.0301 81.5776 56.1235 81.5442L57.2623 81.5064V81.1061C57.2623 80.5472 57.141 80.1589 56.8993 79.942C56.6571 79.7252 56.3151 79.6167 55.8732 79.6167C55.5226 79.6167 55.1887 79.6712 54.872 79.7796C54.5548 79.8794 54.2587 79.9965 53.983 80.1298L53.6453 79.3038C53.9372 79.1453 54.2835 79.012 54.6843 78.9036C55.0846 78.7865 55.5016 78.7282 55.9358 78.7282ZM56.2611 82.3075C55.4266 82.3409 54.8467 82.4742 54.5214 82.7078C54.2042 82.9414 54.0456 83.271 54.0456 83.6966C54.0456 84.072 54.1584 84.3477 54.3838 84.5225C54.6174 84.6978 54.9136 84.7857 55.2723 84.7857C55.8398 84.7857 56.3112 84.6309 56.6867 84.3223C57.0622 84.0052 57.2499 83.5213 57.2499 82.8707V82.2698L56.2611 82.3075ZM62.9887 78.841H64.1652L65.6169 82.6581C65.7005 82.8831 65.7755 83.1 65.8424 83.3087C65.9174 83.5175 65.9842 83.7219 66.0425 83.922C66.1013 84.1141 66.1471 84.3018 66.1801 84.4852H66.2302C66.2804 84.2765 66.3597 84.0052 66.4681 83.6717C66.5766 83.3297 66.6893 82.9877 66.8058 82.6452L68.1701 78.841H69.359L66.4681 86.4752C66.3095 86.8923 66.1218 87.2553 65.9049 87.5639C65.6962 87.881 65.4378 88.1227 65.1292 88.2899C64.8287 88.4648 64.4614 88.5527 64.0277 88.5527C63.8275 88.5527 63.6522 88.5402 63.5022 88.5149C63.3517 88.4982 63.2228 88.4777 63.1139 88.4524V87.5763C63.2061 87.593 63.3145 87.6097 63.4396 87.6264C63.5729 87.6432 63.7105 87.6513 63.8524 87.6513C64.1113 87.6513 64.3324 87.6016 64.5159 87.5013C64.7079 87.4096 64.8703 87.272 65.004 87.0881C65.1373 86.9133 65.25 86.7045 65.3418 86.4623L65.6924 85.5739L62.9887 78.841ZM71.3839 81.2814C71.3839 81.6736 71.4923 81.9655 71.7092 82.1575C71.9342 82.3409 72.2557 82.4326 72.6727 82.4326C73.0897 82.4326 73.4695 82.3701 73.8115 82.2449C74.1535 82.1116 74.5041 81.9363 74.8628 81.7195V78.841H75.9644V85.549H74.8628V82.5578C74.4874 82.8 74.1162 82.9915 73.7489 83.1334C73.3902 83.2671 72.9564 83.3335 72.4477 83.3335C71.7632 83.3335 71.2291 83.1544 70.8456 82.7957C70.4701 82.4369 70.2824 81.9569 70.2824 81.3564V78.841H71.3839V81.2814ZM80.6862 78.7158C81.2618 78.7158 81.7538 78.841 82.1627 79.0913C82.5797 79.3416 82.8969 79.696 83.1138 80.1551C83.3392 80.6055 83.452 81.1353 83.452 81.7443V82.4078H78.8586C78.8753 83.1668 79.0674 83.7467 79.4347 84.147C79.8102 84.5392 80.3313 84.7355 80.9991 84.7355C81.4242 84.7355 81.7997 84.6978 82.1255 84.6228C82.4589 84.5392 82.8009 84.4227 83.1515 84.2722V85.2361C82.8095 85.3861 82.4713 85.4946 82.1379 85.5614C81.804 85.6364 81.4075 85.6742 80.9489 85.6742C80.3146 85.6742 79.7514 85.5447 79.2594 85.2863C78.7755 85.0274 78.3958 84.6438 78.1206 84.1346C77.8536 83.6173 77.7198 82.9877 77.7198 82.2449C77.7198 81.5107 77.8407 80.8807 78.0829 80.3552C78.3332 79.8293 78.6795 79.4247 79.1218 79.141C79.5723 78.8577 80.0934 78.7158 80.6862 78.7158ZM80.6733 79.6167C80.1479 79.6167 79.7309 79.7877 79.4218 80.1298C79.1218 80.4637 78.9422 80.9308 78.8839 81.5317H82.3003C82.3003 81.1477 82.242 80.8138 82.1255 80.5305C82.0084 80.2468 81.8288 80.0256 81.5871 79.867C81.3535 79.7003 81.0488 79.6167 80.6733 79.6167ZM89.7903 79.7667H87.6001V85.549H86.511V79.7667H84.3462V78.841H89.7903V79.7667ZM93.6523 78.7282C94.4696 78.7282 95.0748 78.9074 95.467 79.2661C95.8592 79.6248 96.055 80.1966 96.055 80.981V85.549H95.254L95.0414 84.598H94.9912C94.7992 84.8397 94.5991 85.0441 94.3908 85.2108C94.1902 85.3694 93.9566 85.4864 93.6896 85.5614C93.4311 85.6364 93.114 85.6742 92.7385 85.6742C92.3382 85.6742 91.9752 85.603 91.6499 85.4611C91.3327 85.3193 91.0824 85.1024 90.899 84.8105C90.7151 84.5101 90.6234 84.1346 90.6234 83.6842C90.6234 83.0168 90.8866 82.5033 91.412 82.1446C91.9375 81.7777 92.7471 81.5776 93.84 81.5442L94.9788 81.5064V81.1061C94.9788 80.5472 94.858 80.1589 94.6158 79.942C94.3741 79.7252 94.0316 79.6167 93.5897 79.6167C93.2391 79.6167 92.9052 79.6712 92.5885 79.7796C92.2714 79.8794 91.9752 79.9965 91.7001 80.1298L91.3618 79.3038C91.6537 79.1453 92 79.012 92.4008 78.9036C92.8011 78.7865 93.2181 78.7282 93.6523 78.7282ZM93.9776 82.3075C93.1431 82.3409 92.5632 82.4742 92.2379 82.7078C91.9207 82.9414 91.7626 83.271 91.7626 83.6966C91.7626 84.072 91.8749 84.3477 92.1003 84.5225C92.3339 84.6978 92.6301 84.7857 92.9888 84.7857C93.5563 84.7857 94.0278 84.6309 94.4032 84.3223C94.7787 84.0052 94.9664 83.5213 94.9664 82.8707V82.2698L93.9776 82.3075Z" fill="#151D48"/>
<path fill-rule="evenodd" clip-rule="evenodd" d="M61.6935 2.54761H73.0848V29.9046C73.0848 33.9962 72.1967 37.4566 70.4203 40.2859C69.2065 42.2188 67.7027 43.8267 65.9086 45.1095C65.31 42.6857 63.3888 40.7519 60.9355 40.1655C62.3671 39.3184 62.6651 38.1135 62.6651 36.5865C64.3055 36.306 64.1206 33.8365 62.4325 33.8365H61.4423C59.2712 30.5739 58.0718 23.9768 59.4379 20.2605C60.2256 20.1412 60.613 19.2106 60.1239 18.5665C60.4401 18.3579 60.6488 18.0298 60.6904 17.6599L61.4781 10.257C61.5197 9.82767 61.3286 9.46965 60.8156 9.46378L58.7162 9.42795C58.3999 9.42795 58.1372 9.63063 58.0598 9.91705L57.3739 12.9771C57.1355 14.039 55.3576 13.8242 55.3576 13.0487V10.0304C55.3576 9.67854 55.0356 9.42795 54.6898 9.42795H52.6315C52.2856 9.42795 51.9637 9.67854 51.9637 10.0304V13.0487C51.9637 13.8242 50.1858 14.039 49.9474 12.9771L49.2614 9.91705C49.1841 9.63063 48.9213 9.42795 48.6051 9.42795L46.5115 9.46378C45.9925 9.46965 45.8017 9.82739 45.8434 10.257L45.8446 10.2563L46.6319 17.6592C46.6736 18.029 46.8825 18.3569 47.1985 18.5658C46.7092 19.2099 47.097 20.1405 47.8843 20.2598C48.1647 21.0172 48.3496 21.9777 48.4212 23.0872C48.63 26.4279 47.7353 31.0866 45.886 33.8365H44.8897C43.2316 33.8365 42.9809 36.3001 44.6571 36.5865C44.6571 38.1135 44.9554 39.3184 46.3869 40.1655C43.7561 40.7948 41.7666 42.9579 41.3152 45.583C39.3481 44.2389 37.7252 42.495 36.4464 40.3512C34.7588 37.4784 33.915 33.9962 33.915 29.9046V2.54761H45.3062H61.6935Z" fill="#5D5FEF"/>
</svg>
