<svg width="9" height="6" viewBox="0 0 9 6" fill="none" xmlns="http://www.w3.org/2000/svg">
<path d="M7.64881 0.000813285C7.47591 0.0104512 7.31358 0.0869727 7.19616 0.214125L3.13848 4.42252L1.12011 2.66933V2.66945C0.987962 2.54625 0.811574 2.48203 0.631252 2.49144C0.450919 2.50084 0.282202 2.58305 0.163653 2.71926C0.045094 2.85547 -0.0130806 3.03395 0.00247828 3.21383C0.0180384 3.39381 0.105942 3.55963 0.246097 3.67343L2.74313 5.83755C2.87214 5.94914 3.03889 6.00709 3.20924 5.99931C3.37959 5.99153 3.54055 5.91872 3.65874 5.79598L8.1534 1.13486C8.2802 1.00701 8.34976 0.833398 8.34639 0.653552C8.34302 0.473567 8.26696 0.30263 8.13552 0.179681C8.00418 0.0567113 7.82862 -0.00773595 7.64886 0.000742071L7.64881 0.000813285Z" fill="#4763E4"/>
</svg>
