<svg width="15" height="15" viewBox="0 0 15 15" fill="none" xmlns="http://www.w3.org/2000/svg">
<g clip-path="url(#clip0_1104_3647)">
<path d="M12.1884 1.37695H3.58439C2.79241 1.37695 2.15039 2.01898 2.15039 2.81095V12.849C2.15039 13.6409 2.79241 14.283 3.58439 14.283H12.1884C12.9804 14.283 13.6224 13.6409 13.6224 12.849V2.81095C13.6224 2.01898 12.9804 1.37695 12.1884 1.37695Z" stroke="#444A6D" stroke-width="2"/>
<path fill-rule="evenodd" clip-rule="evenodd" d="M0 4.24532C0 4.05516 0.0755409 3.87279 0.210004 3.73832C0.344468 3.60386 0.52684 3.52832 0.717 3.52832H2.868C3.05816 3.52832 3.24053 3.60386 3.375 3.73832C3.50946 3.87279 3.585 4.05516 3.585 4.24532C3.585 4.43548 3.50946 4.61785 3.375 4.75232C3.24053 4.88678 3.05816 4.96232 2.868 4.96232H0.717C0.52684 4.96232 0.344468 4.88678 0.210004 4.75232C0.0755409 4.61785 0 4.43548 0 4.24532ZM5.019 7.83032C5.019 7.64016 5.09454 7.45779 5.229 7.32332C5.36347 7.18886 5.54584 7.11332 5.736 7.11332C5.92616 7.11332 6.10853 7.18886 6.243 7.32332C6.37746 7.45779 6.453 7.64016 6.453 7.83032C6.453 8.02048 6.37746 8.20285 6.243 8.33732C6.10853 8.47178 5.92616 8.54732 5.736 8.54732C5.54584 8.54732 5.36347 8.47178 5.229 8.33732C5.09454 8.20285 5.019 8.02048 5.019 7.83032ZM5.736 4.24532C5.54584 4.24532 5.36347 4.32086 5.229 4.45532C5.09454 4.58979 5.019 4.77216 5.019 4.96232C5.019 5.15248 5.09454 5.33485 5.229 5.46932C5.36347 5.60378 5.54584 5.67932 5.736 5.67932C5.92616 5.67932 6.10853 5.60378 6.243 5.46932C6.37746 5.33485 6.453 5.15248 6.453 4.96232C6.453 4.77216 6.37746 4.58979 6.243 4.45532C6.10853 4.32086 5.92616 4.24532 5.736 4.24532V4.24532ZM5.019 10.6983C5.019 10.5082 5.09454 10.3258 5.229 10.1913C5.36347 10.0569 5.54584 9.98132 5.736 9.98132C5.92616 9.98132 6.10853 10.0569 6.243 10.1913C6.37746 10.3258 6.453 10.5082 6.453 10.6983C6.453 10.8885 6.37746 11.0709 6.243 11.2053C6.10853 11.3398 5.92616 11.4153 5.736 11.4153C5.54584 11.4153 5.36347 11.3398 5.229 11.2053C5.09454 11.0709 5.019 10.8885 5.019 10.6983ZM7.887 7.11332C7.69684 7.11332 7.51447 7.18886 7.38 7.32332C7.24554 7.45779 7.17 7.64016 7.17 7.83032C7.17 8.02048 7.24554 8.20285 7.38 8.33732C7.51447 8.47178 7.69684 8.54732 7.887 8.54732H10.755C10.9452 8.54732 11.1275 8.47178 11.262 8.33732C11.3965 8.20285 11.472 8.02048 11.472 7.83032C11.472 7.64016 11.3965 7.45779 11.262 7.32332C11.1275 7.18886 10.9452 7.11332 10.755 7.11332H7.887ZM7.17 4.96232C7.17 4.77216 7.24554 4.58979 7.38 4.45532C7.51447 4.32086 7.69684 4.24532 7.887 4.24532H10.755C10.9452 4.24532 11.1275 4.32086 11.262 4.45532C11.3965 4.58979 11.472 4.77216 11.472 4.96232C11.472 5.15248 11.3965 5.33485 11.262 5.46932C11.1275 5.60378 10.9452 5.67932 10.755 5.67932H7.887C7.69684 5.67932 7.51447 5.60378 7.38 5.46932C7.24554 5.33485 7.17 5.15248 7.17 4.96232ZM7.887 9.98132C7.69684 9.98132 7.51447 10.0569 7.38 10.1913C7.24554 10.3258 7.17 10.5082 7.17 10.6983C7.17 10.8885 7.24554 11.0709 7.38 11.2053C7.51447 11.3398 7.69684 11.4153 7.887 11.4153H10.755C10.9452 11.4153 11.1275 11.3398 11.262 11.2053C11.3965 11.0709 11.472 10.8885 11.472 10.6983C11.472 10.5082 11.3965 10.3258 11.262 10.1913C11.1275 10.0569 10.9452 9.98132 10.755 9.98132H7.887ZM0 7.83032C0 7.64016 0.0755409 7.45779 0.210004 7.32332C0.344468 7.18886 0.52684 7.11332 0.717 7.11332H2.868C3.05816 7.11332 3.24053 7.18886 3.375 7.32332C3.50946 7.45779 3.585 7.64016 3.585 7.83032C3.585 8.02048 3.50946 8.20285 3.375 8.33732C3.24053 8.47178 3.05816 8.54732 2.868 8.54732H0.717C0.52684 8.54732 0.344468 8.47178 0.210004 8.33732C0.0755409 8.20285 0 8.02048 0 7.83032ZM0.717 10.6983C0.52684 10.6983 0.344468 10.7739 0.210004 10.9083C0.0755409 11.0428 0 11.2252 0 11.4153C0 11.6055 0.0755409 11.7879 0.210004 11.9223C0.344468 12.0568 0.52684 12.1323 0.717 12.1323H2.868C3.05816 12.1323 3.24053 12.0568 3.375 11.9223C3.50946 11.7879 3.585 11.6055 3.585 11.4153C3.585 11.2252 3.50946 11.0428 3.375 10.9083C3.24053 10.7739 3.05816 10.6983 2.868 10.6983H0.717Z" fill="#444A6D"/>
</g>
<defs>
<clipPath id="clip0_1104_3647">
<rect width="14.34" height="14.34" fill="white" transform="translate(0 0.660156)"/>
</clipPath>
</defs>
</svg>
