<svg width="28" height="28" viewBox="0 0 28 28" fill="none" xmlns="http://www.w3.org/2000/svg">
<path d="M20.6439 27.2755H21.7789C23.5569 27.2755 24.9946 25.8378 24.9946 24.0598V14.9805C24.9946 13.9213 24.465 12.8998 23.557 12.2944L15.9909 7.26301C14.894 6.54417 13.4941 6.54417 12.4348 7.26301L4.86877 12.2944C3.96077 12.8998 3.43115 13.8833 3.43115 14.9805V24.0598C3.43115 25.8378 4.86877 27.2755 6.64685 27.2755H7.78183C9.55985 27.2755 10.9975 25.8378 10.9975 24.0598V20.2767C10.9975 18.4987 12.4351 17.061 14.2132 17.061C15.9913 17.061 17.4289 18.4986 17.4289 20.2767V24.0598C17.4287 25.8378 18.866 27.2755 20.6441 27.2755H20.6439Z" fill="white"/>
<path d="M20.8327 3.51864C21.6273 4.12399 22.7243 3.55638 22.7243 2.57289V1.211C22.7243 0.567919 22.1946 0.0383301 21.5516 0.0383301H20.9085C20.2654 0.0383301 19.7358 0.56794 19.7358 1.211V2.08103C19.7358 2.45944 19.925 2.79987 20.2277 3.02678L20.8327 3.51864Z" fill="#9E9FF5"/>
<path d="M15.0448 0.227007C14.5909 -0.0756688 13.9098 -0.0756688 13.4559 0.227007L0.442291 11.3869C-0.427736 12.2192 0.063881 13.6569 1.23686 13.6569C1.5018 13.6569 1.72873 13.5811 1.91767 13.4299L13.4937 4.95596C13.9099 4.65328 14.4772 4.65328 14.8934 4.95596L26.0533 13.0516C26.2425 13.2028 26.5072 13.2786 26.7721 13.2786C27.9071 13.2786 28.4367 11.8409 27.5667 11.0086L15.0448 0.227007Z" fill="#9E9FF5"/>
</svg>
