<svg width="32" height="32" viewBox="0 0 32 32" fill="none" xmlns="http://www.w3.org/2000/svg">
<path d="M27 2H5C3.34309 2 2 3.344 2 5V27C2 28.656 3.34309 30 5 30H27C28.6569 30 30 28.656 30 27V5C30 3.344 28.6569 2 27 2ZM24.8109 11.652L13.9921 22.4691C13.711 22.7502 13.3291 22.9082 12.9311 22.9082H12.9291C12.532 22.9082 12.1501 22.7493 11.8682 22.4671L7.18628 17.768C6.60125 17.181 6.60325 16.2321 7.19029 15.6471C7.77732 15.062 8.72624 15.064 9.31127 15.6511L12.9322 19.2861L22.6882 9.53184C23.2742 8.94589 24.2233 8.94589 24.8092 9.53184C25.3952 10.118 25.3961 11.066 24.811 11.6519L24.8109 11.652Z" fill="white"/>
</svg>
