<svg width="32" height="32" viewBox="0 0 32 32" fill="none" xmlns="http://www.w3.org/2000/svg">
<g clip-path="url(#clip0_1108_5438)">
<path d="M4 30C4 28.2928 4.29746 26.6023 4.87539 25.0251C5.45332 23.4479 6.3004 22.0148 7.36827 20.8076C8.43615 19.6004 9.7039 18.6429 11.0991 17.9896C12.4944 17.3363 13.9898 17 15.5 17C17.0102 17 18.5056 17.3363 19.9009 17.9896C21.2961 18.6429 22.5639 19.6005 23.6317 20.8076C24.6996 22.0148 25.5467 23.4479 26.1246 25.0251C26.7025 26.6024 27 28.2928 27 30L15.5 30L4 30Z" fill="white"/>
<circle cx="15.79" cy="8.79" r="6.79" fill="#9E9FF5"/>
</g>
<defs>
<clipPath id="clip0_1108_5438">
<rect width="32" height="32" fill="white"/>
</clipPath>
</defs>
</svg>
