<svg width="28" height="28" viewBox="0 0 28 28" fill="none" xmlns="http://www.w3.org/2000/svg">
<path d="M14.0013 0C6.26781 0 0 6.26781 0 13.9995C0 21.7313 6.26781 28.0009 14.0013 28.0009C21.7317 28.0009 28 21.7314 28 13.9995C28 6.26808 21.7322 0 14.0013 0V0ZM15.0519 21.1611V23.5465H12.7609V21.3246C11.1947 21.2537 9.67101 20.8325 8.78405 20.3165L9.48394 17.5818C10.4668 18.1164 11.849 18.6085 13.3695 18.6085C14.703 18.6085 15.6148 18.0943 15.6148 17.1585C15.6148 16.2701 14.8647 15.7072 13.1368 15.122C10.6335 14.2793 8.9227 13.1108 8.9227 10.8416C8.9227 8.78153 10.3759 7.16664 12.8791 6.67593L12.8784 4.45344H15.1726V6.51168C16.7387 6.58258 17.7893 6.90936 18.5628 7.28528L17.8836 9.9301C17.275 9.67212 16.2009 9.13298 14.5137 9.13298C12.9931 9.13298 12.5024 9.78865 12.5024 10.4443C12.5024 11.2165 13.3217 11.7086 15.3094 12.4569C18.0942 13.4398 19.2184 14.7261 19.2184 16.8332C19.2188 18.9153 17.7421 20.6924 15.0517 21.161L15.0519 21.1611Z" fill="white"/>
</svg>
