<svg xmlns="http://www.w3.org/2000/svg" width="32" height="32" viewBox="0 0 32 32" fill="none">
<path d="M16 10.666C17.4145 10.666 18.7711 11.2279 19.7713 12.2281C20.7714 13.2283 21.3334 14.5849 21.3334 15.9993C21.3334 17.4138 20.7714 18.7704 19.7713 19.7706C18.7711 20.7708 17.4145 21.3327 16 21.3327C14.5855 21.3327 13.229 20.7708 12.2288 19.7706C11.2286 18.7704 10.6667 17.4138 10.6667 15.9993C10.6667 14.5849 11.2286 13.2283 12.2288 12.2281C13.229 11.2279 14.5855 10.666 16 10.666ZM16 13.3327C15.2928 13.3327 14.6145 13.6136 14.1144 14.1137C13.6143 14.6138 13.3334 15.2921 13.3334 15.9993C13.3334 16.7066 13.6143 17.3849 14.1144 17.885C14.6145 18.3851 15.2928 18.666 16 18.666C16.7073 18.666 17.3855 18.3851 17.8856 17.885C18.3857 17.3849 18.6667 16.7066 18.6667 15.9993C18.6667 15.2921 18.3857 14.6138 17.8856 14.1137C17.3855 13.6136 16.7073 13.3327 16 13.3327ZM13.3334 29.3327C13 29.3327 12.72 29.0927 12.6667 28.7727L12.1734 25.2393C11.3334 24.906 10.6134 24.4527 9.92002 23.9193L6.60002 25.266C6.30669 25.3727 5.94669 25.266 5.78669 24.9727L3.12002 20.3594C3.03841 20.222 3.00964 20.0596 3.03909 19.9025C3.06854 19.7455 3.15419 19.6045 3.28002 19.506L6.09335 17.2927L6.00002 15.9993L6.09335 14.666L3.28002 12.4927C3.15419 12.3942 3.06854 12.2532 3.03909 12.0962C3.00964 11.9391 3.03841 11.7767 3.12002 11.6393L5.78669 7.02602C5.94669 6.73268 6.30669 6.61268 6.60002 6.73268L9.92002 8.06602C10.6134 7.54602 11.3334 7.09268 12.1734 6.75935L12.6667 3.22602C12.72 2.90602 13 2.66602 13.3334 2.66602H18.6667C19 2.66602 19.28 2.90602 19.3334 3.22602L19.8267 6.75935C20.6667 7.09268 21.3867 7.54602 22.08 8.06602L25.4 6.73268C25.6934 6.61268 26.0534 6.73268 26.2134 7.02602L28.88 11.6393C29.0534 11.9327 28.9734 12.2927 28.72 12.4927L25.9067 14.666L26 15.9993L25.9067 17.3327L28.72 19.506C28.9734 19.706 29.0534 20.066 28.88 20.3594L26.2134 24.9727C26.0534 25.266 25.6934 25.386 25.4 25.266L22.08 23.9327C21.3867 24.4527 20.6667 24.906 19.8267 25.2393L19.3334 28.7727C19.28 29.0927 19 29.3327 18.6667 29.3327H13.3334ZM15 5.33268L14.5067 8.81268C12.9067 9.14602 11.4934 9.99935 10.4667 11.186L7.25335 9.79935L6.25335 11.5327L9.06669 13.5993C8.53335 15.1549 8.53335 16.8438 9.06669 18.3993L6.24002 20.4793L7.24002 22.2127L10.48 20.826C11.5067 21.9993 12.9067 22.8527 14.4934 23.1727L14.9867 26.666H17.0134L17.5067 23.186C19.0934 22.8527 20.4934 21.9993 21.52 20.826L24.76 22.2127L25.76 20.4793L22.9334 18.4127C23.4667 16.8527 23.4667 15.1593 22.9334 13.5993L25.7467 11.5327L24.7467 9.79935L21.5333 11.186C20.4856 9.97311 19.0645 9.14291 17.4934 8.82602L17 5.33268H15Z" fill="white"/>
<path d="M22 16C22 19.3137 19.3137 22 16 22C12.6863 22 10 19.3137 10 16C10 12.6863 12.6863 10 16 10C19.3137 10 22 12.6863 22 16ZM13.7547 16C13.7547 17.2401 14.7599 18.2453 16 18.2453C17.2401 18.2453 18.2453 17.2401 18.2453 16C18.2453 14.7599 17.2401 13.7547 16 13.7547C14.7599 13.7547 13.7547 14.7599 13.7547 16Z" fill="#9E9FF5"/>
</svg>